<?xml version="1.0" encoding="UTF-8" standalone="no"?>
<svg
   xmlns:dc="http://purl.org/dc/elements/1.1/"
   xmlns:cc="http://creativecommons.org/ns#"
   xmlns:rdf="http://www.w3.org/1999/02/22-rdf-syntax-ns#"
   xmlns:svg="http://www.w3.org/2000/svg"
   xmlns="http://www.w3.org/2000/svg"
   id="svg24"
   version="1.1"
   style="overflow:visible"
   viewBox="-240 -126 480 252"
   height="1008px"
   width="1920px">
  <metadata
     id="metadata30">
    <rdf:RDF>
      <cc:Work
         rdf:about="">
        <dc:format>image/svg+xml</dc:format>
        <dc:type
           rdf:resource="http://purl.org/dc/dcmitype/StillImage" />
      </cc:Work>
    </rdf:RDF>
  </metadata>
  <defs
     id="defs28" />
  <rect
     id="rect2"
     fill-opacity="0"
     fill="rgb(0,0,0)"
     height="252"
     width="480"
     y="-126"
     x="-240" />
  <svg
     id="svg22"
     version="1.1"
     y="-250"
     x="-250"
     viewBox="-250 -250 500 500"
     height="500"
     width="500"
     style="overflow:visible">
    <g
       style="fill:#ffffff;stroke-linejoin:round"
       id="g20">
      <path
         style="fill:#ffffff;fill-opacity:1;stroke:#444444;stroke-width:4;stroke-linecap:butt;stroke-linejoin:round;stroke-opacity:1"
         id="path4"
         d="m -63.5388,-91.76658 c 15.09852,-0.786234 16.92882,11.90124 19.04598,23.239679 2.692037,-9.38196 4.595076,-14.43756 9.95286,-14.081281 6.4032,0.425807 4.467864,12.79506 6.84546,14.1852 27.65088,19.602839 5.467584,41.0805 36.1806,80.5764 l -43.206,51.95196 c -53.68656,-67.7334 -5.69421,-101.6322 -28.81884,-155.8722 z" />
      <path
         style="fill:#ffffff;fill-opacity:1;stroke:none;stroke-linecap:butt;stroke-linejoin:round"
         id="path6"
         d="m 86.281799,-116.05188 c -24.38022,63.754799 -70.3938,109.2888 -117.8514,153.606 -31.40436,2.830644 -36.3084,-23.56374 -58.266,-23.15106 -9.32598,0.175302 -17.283059,8.502659 -17.595419,16.841459 -0.96773,5.147772 -7.1193,14.760539 7.35594,12.34074 3.59341,2.144441 8.632198,3.711888 15.431698,4.310538 15.514439,1.365935 30.727079,40.7556 50.92812,52.351383 22.32732,12.81618 43.46976,8.66286 61.135799,4.25394 25.20822,15.85122 41.18508,14.16282 46.85178,2.34996 10.2075,6.23646 27.170283,-1.44486 21.48846,-13.746657 19.958523,1.868195 23.563443,-11.88942 22.165203,-20.43888 -22.209543,6.2547 -56.911683,2.126922 -76.963803,-2.399778 31.333199,-7.66764 69.482403,-37.26516 68.559603,-110.833801 7.09026,-11.43132 2.89026,-28.6188 -9.48804,-14.87184 10.44504,-17.41056 3.91149,-40.4709 -8.184303,-19.30914 3.557687,-11.52 9.555663,-26.588104 -5.567898,-41.303344 z" />
      <path
         style="fill:#d6e1e4;fill-opacity:1;stroke:none;stroke-linecap:butt;stroke-linejoin:round"
         id="path8"
         d="m 91.8498,-74.7486 c -5.964462,13.8654 -16.07058,34.749599 -31.90452,49.91994 -3.482466,3.203633 1.46067,8.364419 4.80966,5.021424 11.1357,-12.2619 31.49592,-40.5762 27.094859,-54.94134 z" />
      <path
         style="fill:#e4ecef;fill-opacity:1;stroke:none;stroke-linecap:butt;stroke-linejoin:round"
         id="path10"
         d="m 100.0338,-55.440001 c -5.657208,17.44734 -16.02414,37.3311 -41.05302,56.74344 -3.7581,2.828172 0.679302,8.546999 4.25967,5.496852 35.50302,-30.2451 39.27468,-53.24166 36.79332,-62.2404 z" />
      <path
         style="fill:#eaf0f3;fill-opacity:1;stroke:none;stroke-linecap:butt;stroke-linejoin:round"
         id="path12"
         d="m 109.5222,-40.5672 c -8.93268,23.40468 -25.703761,50.99748 -48.370561,67.524599 -3.747888,2.731632 0.512826,8.56488 4.096716,5.621376 40.701665,-33.42942 43.401245,-63.8358 44.273815,-73.1454 z" />
      <path
         style="fill:#444444;fill-opacity:1;stroke:none;stroke-linecap:butt;stroke-linejoin:round"
         id="path14"
         d="m -95.53038,26.8422 a 4.081632,4.082405 0 0 0 4.081602,4.082394 4.081632,4.082405 0 0 0 4.08165,-4.0824 4.081632,4.082405 0 0 0 -4.08165,-4.082412 4.081632,4.082405 0 0 0 -4.081602,4.082418 z" />
      <path
         style="fill:none;stroke:#444444;stroke-width:4;stroke-linecap:butt;stroke-linejoin:round;stroke-opacity:1"
         id="path16"
         d="m 86.281799,-116.05188 c -24.38022,63.754799 -70.3938,109.2888 -117.8514,153.606 -31.40436,2.830644 -36.3084,-23.56374 -58.266,-23.15106 -9.32598,0.175302 -17.283059,8.502659 -17.595419,16.841459 -0.96773,5.147772 -7.1193,14.760539 7.35594,12.34074 3.59341,2.144441 8.632198,3.711888 15.431698,4.310538 15.514439,1.365935 30.727079,40.7556 50.92812,52.351383 22.32732,12.81618 43.46976,8.66286 61.135799,4.25394 25.20822,15.85122 41.18508,14.16282 46.85178,2.34996 10.2075,6.23646 27.170283,-1.44486 21.48846,-13.746657 19.958523,1.868195 23.563443,-11.88942 22.165203,-20.43888 -22.209543,6.2547 -56.911683,2.126922 -76.963803,-2.399778 31.333199,-7.66764 69.482403,-37.26516 68.559603,-110.833801 7.09026,-11.43132 2.89026,-28.6188 -9.48804,-14.87184 10.44504,-17.41056 3.91149,-40.4709 -8.184303,-19.30914 3.557687,-11.52 9.555663,-26.588104 -5.567898,-41.303344 z" />
      <path
         style="fill:#ffea67;fill-opacity:1;stroke:#444444;stroke-width:4;stroke-linecap:butt;stroke-linejoin:round;stroke-opacity:1"
         id="path18"
         d="m -107.44458,31.2138 c -4.04686,3.250949 -8.87928,10.25922 -10.75554,16.043039 l 19.8975,-2.408052 c -5.00943,-2.928348 -7.33362,-9.28374 -9.14196,-13.635 z" />
    </g>
  </svg>
</svg>
